<svg width="34" height="34" viewBox="0 0 34 34" fill="none" xmlns="http://www.w3.org/2000/svg">
<path d="M28.2183 21.7208C28.2183 21.633 28.2329 21.1775 27.8827 20.8263L15.6377 8.54345C15.5757 8.48125 15.5411 8.39709 15.5411 8.30928V5.52123C15.5411 5.43341 15.5757 5.34926 15.6377 5.28706L17.5895 3.32957C17.6515 3.26737 17.7354 3.23261 17.823 3.23261H20.5846C20.6722 3.23261 20.7561 3.26737 20.8181 3.32957L22.7698 5.28706C22.8319 5.34926 22.8665 5.43341 22.8665 5.52123V8.29099C22.8665 8.3788 22.8319 8.46295 22.7698 8.52515L21.0169 10.2832C20.6813 10.6199 20.6813 11.1669 21.0169 11.5053L23.4539 13.9494C23.8479 14.3446 24.4553 14.4287 24.9423 14.1561L25.4403 13.8762C25.6993 13.7317 25.785 13.4006 25.63 13.1463L24.6596 11.5565C24.5793 11.4266 24.5994 11.2565 24.707 11.1486L25.6573 10.1954C25.9328 9.91918 26.0878 9.54415 26.0878 9.15448V4.65408C26.0878 4.26258 25.9328 3.88754 25.6573 3.6113L22.4853 0.431746C22.2099 0.155502 21.8359 0 21.4456 0H16.9584C16.568 0 16.1941 0.155502 15.9186 0.431746L12.7466 3.61313C12.4712 3.88937 12.3161 4.26441 12.3161 4.65591V9.15631C12.3161 9.54598 12.4712 9.92101 12.7448 10.1973L24.9095 22.416C24.9715 22.4782 25.0062 22.5624 25.0062 22.6502V24.1558C25.0062 24.4504 24.6505 24.5985 24.4425 24.39L0.563637 0.439064C0.355693 0.230508 0 0.378693 0 0.673231V3.83266C0 4.22416 0.155046 4.59919 0.43048 4.87544L23.6946 28.208C23.8242 28.3379 23.8242 28.5483 23.6946 28.6763L22.945 29.4282C22.8155 29.5581 22.6057 29.5581 22.478 29.4282L0.563637 7.45311C0.355693 7.24455 0 7.39274 0 7.68727V10.8467C0 11.2382 0.155046 11.6132 0.43048 11.8895L18.6894 30.2021C18.8974 30.4107 18.7496 30.7674 18.4559 30.7674H17.2174C16.9511 30.7674 16.6939 30.6613 16.5042 30.471L0.563637 14.4745C0.355693 14.2659 0 14.4141 0 14.7086V17.8607C0 18.2522 0.155046 18.6273 0.43048 18.9035L15.0522 33.5683C15.3276 33.8445 15.7016 34 16.0919 34H22.3339C22.7242 34 23.0982 33.8445 23.3736 33.5683L27.7113 29.2179C28.0615 28.8666 28.2311 28.4111 28.2311 27.9958L28.2183 21.7208Z" fill="#8E7777"/>
<path d="M20.0721 7.85375C19.9936 7.77509 19.8878 7.73118 19.7784 7.73118H19.2001C19.0907 7.73118 18.9849 7.77509 18.9065 7.85375L18.4979 8.26355C18.4194 8.34221 18.3757 8.44832 18.3757 8.55808V9.13801C18.3757 9.24778 18.4194 9.35389 18.4979 9.43255L18.9065 9.84235C18.9849 9.92101 19.0907 9.96492 19.2001 9.96492H19.7784C19.8878 9.96492 19.9936 9.92101 20.0721 9.84235L20.4806 9.43255C20.5591 9.35389 20.6029 9.24778 20.6029 9.13801V8.55808C20.6029 8.44832 20.5591 8.34221 20.4806 8.26355L20.0721 7.85375Z" fill="#8E7777"/>
</svg>
