<svg preserveAspectRatio="none" width="100%" height="100%" overflow="visible" style="display: block;" viewBox="0 0 12 12" fill="none" xmlns="http://www.w3.org/2000/svg">
<path id="Vector" d="M11.2503 0.625V8.75C11.2503 8.91576 11.1845 9.07473 11.0673 9.19194C10.9501 9.30915 10.7911 9.375 10.6253 9.375C10.4596 9.375 10.3006 9.30915 10.1834 9.19194C10.0662 9.07473 10.0003 8.91576 10.0003 8.75V2.13359L1.06754 11.0672C0.95026 11.1845 0.7912 11.2503 0.625348 11.2503C0.459495 11.2503 0.300435 11.1845 0.18316 11.0672C0.0658846 10.9499 0 10.7909 0 10.625C0 10.4591 0.0658846 10.3001 0.18316 10.1828L9.11675 1.25H2.50035C2.33459 1.25 2.17562 1.18415 2.05841 1.06694C1.9412 0.949731 1.87535 0.79076 1.87535 0.625C1.87535 0.45924 1.9412 0.300269 2.05841 0.183058C2.17562 0.0658481 2.33459 0 2.50035 0H10.6253C10.7911 0 10.9501 0.0658481 11.0673 0.183058C11.1845 0.300269 11.2503 0.45924 11.2503 0.625Z" fill="var(--fill-0, #786767)"/>
</svg>
