<svg width="1440" height="30" viewBox="0 0 1440 30" fill="none" xmlns="http://www.w3.org/2000/svg">
<rect width="1440" height="30" fill="#111111"/>
<g style="mix-blend-mode:screen">
<rect x="649.42" y="11" width="8" height="8" rx="4" fill="#D92D20"/>
<path d="M669.081 20H666.813V10.06H670.159L672.357 17.004L674.555 10.06H677.733V20H675.521V12.748L673.211 20H671.391L669.081 12.748V20ZM690.234 20H687.77L687.07 17.984H683.276L682.576 20H680.196L683.92 10.06H686.496L690.234 20ZM685.18 12.496L683.906 16.164H686.44L685.18 12.496ZM695.224 20H692.858V10.06H695.224V20ZM700.952 20H698.712V10.06H701.456L705.236 16.654V10.06H707.462V20H704.844L700.952 13.14V20ZM713.03 20H710.79V10.06H713.534L717.314 16.654V10.06H719.54V20H716.922L713.03 13.14V20ZM730.315 20H722.867V10.06H730.203V11.978H725.247V13.994H729.755V15.884H725.247V18.04H730.315V20ZM737.828 20H735.448V12.006H732.718V10.06H740.558V12.006H737.828V20ZM749.876 20H747.51V10.06H749.876V20ZM757.131 20.182C754.499 20.182 752.987 18.936 752.777 16.934H755.115C755.297 17.858 756.011 18.334 757.173 18.334C758.139 18.334 758.839 17.942 758.839 17.298V17.186C758.839 16.556 758.349 16.248 756.515 15.912C754.135 15.492 753.113 14.638 753.113 13.014V12.874C753.113 11.054 754.737 9.878 756.977 9.878C759.301 9.878 760.799 10.97 761.037 12.916H758.713C758.573 12.118 757.971 11.698 756.935 11.698C755.955 11.698 755.465 12.146 755.465 12.748V12.818C755.465 13.378 755.745 13.686 757.635 13.994C759.931 14.358 761.205 15.212 761.205 16.934V17.074C761.205 18.992 759.497 20.182 757.131 20.182ZM774.246 20H768.086V10.06H770.466V18.04H774.246V20ZM779.621 20H777.255V10.06H779.621V20ZM788.246 20H785.628L782.24 10.06H784.76L786.986 17.368L789.212 10.06H791.634L788.246 20ZM801.54 20H794.092V10.06H801.428V11.978H796.472V13.994H800.98V15.884H796.472V18.04H801.54V20ZM806.419 16.92H805.145L804.599 12.538V10.06H806.965V12.538L806.419 16.92ZM806.937 20H804.627V17.83H806.937V20Z" fill="#D92D20"/>
</g>
<g style="mix-blend-mode:screen">
<rect x="650.42" y="11" width="8" height="8" rx="4" fill="#27ED02"/>
<path d="M670.081 20H667.813V10.06H671.159L673.357 17.004L675.555 10.06H678.733V20H676.521V12.748L674.211 20H672.391L670.081 12.748V20ZM691.234 20H688.77L688.07 17.984H684.276L683.576 20H681.196L684.92 10.06H687.496L691.234 20ZM686.18 12.496L684.906 16.164H687.44L686.18 12.496ZM696.224 20H693.858V10.06H696.224V20ZM701.952 20H699.712V10.06H702.456L706.236 16.654V10.06H708.462V20H705.844L701.952 13.14V20ZM714.03 20H711.79V10.06H714.534L718.314 16.654V10.06H720.54V20H717.922L714.03 13.14V20ZM731.315 20H723.867V10.06H731.203V11.978H726.247V13.994H730.755V15.884H726.247V18.04H731.315V20ZM738.828 20H736.448V12.006H733.718V10.06H741.558V12.006H738.828V20ZM750.876 20H748.51V10.06H750.876V20ZM758.131 20.182C755.499 20.182 753.987 18.936 753.777 16.934H756.115C756.297 17.858 757.011 18.334 758.173 18.334C759.139 18.334 759.839 17.942 759.839 17.298V17.186C759.839 16.556 759.349 16.248 757.515 15.912C755.135 15.492 754.113 14.638 754.113 13.014V12.874C754.113 11.054 755.737 9.878 757.977 9.878C760.301 9.878 761.799 10.97 762.037 12.916H759.713C759.573 12.118 758.971 11.698 757.935 11.698C756.955 11.698 756.465 12.146 756.465 12.748V12.818C756.465 13.378 756.745 13.686 758.635 13.994C760.931 14.358 762.205 15.212 762.205 16.934V17.074C762.205 18.992 760.497 20.182 758.131 20.182ZM775.246 20H769.086V10.06H771.466V18.04H775.246V20ZM780.621 20H778.255V10.06H780.621V20ZM789.246 20H786.628L783.24 10.06H785.76L787.986 17.368L790.212 10.06H792.634L789.246 20ZM802.54 20H795.092V10.06H802.428V11.978H797.472V13.994H801.98V15.884H797.472V18.04H802.54V20ZM807.419 16.92H806.145L805.599 12.538V10.06H807.965V12.538L807.419 16.92ZM807.937 20H805.627V17.83H807.937V20Z" fill="#27ED02"/>
</g>
<g style="mix-blend-mode:screen">
<rect x="651.42" y="11" width="8" height="8" rx="4" fill="#2D2FFF"/>
<path d="M671.081 20H668.813V10.06H672.159L674.357 17.004L676.555 10.06H679.733V20H677.521V12.748L675.211 20H673.391L671.081 12.748V20ZM692.234 20H689.77L689.07 17.984H685.276L684.576 20H682.196L685.92 10.06H688.496L692.234 20ZM687.18 12.496L685.906 16.164H688.44L687.18 12.496ZM697.224 20H694.858V10.06H697.224V20ZM702.952 20H700.712V10.06H703.456L707.236 16.654V10.06H709.462V20H706.844L702.952 13.14V20ZM715.03 20H712.79V10.06H715.534L719.314 16.654V10.06H721.54V20H718.922L715.03 13.14V20ZM732.315 20H724.867V10.06H732.203V11.978H727.247V13.994H731.755V15.884H727.247V18.04H732.315V20ZM739.828 20H737.448V12.006H734.718V10.06H742.558V12.006H739.828V20ZM751.876 20H749.51V10.06H751.876V20ZM759.131 20.182C756.499 20.182 754.987 18.936 754.777 16.934H757.115C757.297 17.858 758.011 18.334 759.173 18.334C760.139 18.334 760.839 17.942 760.839 17.298V17.186C760.839 16.556 760.349 16.248 758.515 15.912C756.135 15.492 755.113 14.638 755.113 13.014V12.874C755.113 11.054 756.737 9.878 758.977 9.878C761.301 9.878 762.799 10.97 763.037 12.916H760.713C760.573 12.118 759.971 11.698 758.935 11.698C757.955 11.698 757.465 12.146 757.465 12.748V12.818C757.465 13.378 757.745 13.686 759.635 13.994C761.931 14.358 763.205 15.212 763.205 16.934V17.074C763.205 18.992 761.497 20.182 759.131 20.182ZM776.246 20H770.086V10.06H772.466V18.04H776.246V20ZM781.621 20H779.255V10.06H781.621V20ZM790.246 20H787.628L784.24 10.06H786.76L788.986 17.368L791.212 10.06H793.634L790.246 20ZM803.54 20H796.092V10.06H803.428V11.978H798.472V13.994H802.98V15.884H798.472V18.04H803.54V20ZM808.419 16.92H807.145L806.599 12.538V10.06H808.965V12.538L808.419 16.92ZM808.937 20H806.627V17.83H808.937V20Z" fill="#2D2FFF"/>
</g>
</svg>
