<svg width="200" height="34" viewBox="0 0 200 34" fill="none" xmlns="http://www.w3.org/2000/svg">
<g clip-path="url(#clip0_347_14228)">
<path d="M28.2183 21.7208C28.2183 21.633 28.2329 21.1775 27.8827 20.8263L15.6377 8.54345C15.5757 8.48125 15.5411 8.39709 15.5411 8.30928V5.52123C15.5411 5.43341 15.5757 5.34926 15.6377 5.28706L17.5895 3.32957C17.6515 3.26737 17.7354 3.23261 17.823 3.23261H20.5846C20.6722 3.23261 20.7561 3.26737 20.8181 3.32957L22.7698 5.28706C22.8319 5.34926 22.8665 5.43341 22.8665 5.52123V8.29099C22.8665 8.3788 22.8319 8.46295 22.7698 8.52515L21.0169 10.2832C20.6813 10.6199 20.6813 11.1669 21.0169 11.5053L23.4539 13.9494C23.8479 14.3446 24.4553 14.4287 24.9423 14.1561L25.4403 13.8762C25.6993 13.7317 25.785 13.4006 25.63 13.1463L24.6596 11.5565C24.5793 11.4266 24.5994 11.2565 24.707 11.1486L25.6573 10.1954C25.9328 9.91918 26.0878 9.54415 26.0878 9.15448V4.65408C26.0878 4.26258 25.9328 3.88754 25.6573 3.6113L22.4853 0.431746C22.2099 0.155502 21.8359 0 21.4456 0H16.9584C16.568 0 16.1941 0.155502 15.9186 0.431746L12.7466 3.61313C12.4712 3.88937 12.3161 4.26441 12.3161 4.65591V9.15631C12.3161 9.54598 12.4712 9.92101 12.7448 10.1973L24.9095 22.416C24.9715 22.4782 25.0062 22.5624 25.0062 22.6502V24.1558C25.0062 24.4504 24.6505 24.5985 24.4425 24.39L0.563637 0.439064C0.355693 0.230508 0 0.378693 0 0.673231V3.83266C0 4.22416 0.155046 4.59919 0.43048 4.87544L23.6946 28.208C23.8242 28.3379 23.8242 28.5483 23.6946 28.6763L22.945 29.4282C22.8155 29.5581 22.6057 29.5581 22.478 29.4282L0.563637 7.45311C0.355693 7.24455 0 7.39274 0 7.68727V10.8467C0 11.2382 0.155046 11.6132 0.43048 11.8895L18.6894 30.2021C18.8974 30.4107 18.7496 30.7674 18.4559 30.7674H17.2174C16.9511 30.7674 16.6939 30.6613 16.5042 30.471L0.563637 14.4745C0.355693 14.2659 0 14.4141 0 14.7086V17.8607C0 18.2522 0.155046 18.6273 0.43048 18.9035L15.0522 33.5683C15.3276 33.8445 15.7016 34 16.0919 34H22.3339C22.7242 34 23.0982 33.8445 23.3736 33.5683L27.7113 29.2179C28.0615 28.8666 28.2311 28.4111 28.2311 27.9958L28.2183 21.7208Z" fill="#8E7777"/>
<path d="M20.0721 7.85375C19.9936 7.77509 19.8878 7.73118 19.7784 7.73118H19.2001C19.0907 7.73118 18.9849 7.77509 18.9065 7.85375L18.4979 8.26355C18.4194 8.34221 18.3757 8.44832 18.3757 8.55808V9.13801C18.3757 9.24778 18.4194 9.35389 18.4979 9.43255L18.9065 9.84235C18.9849 9.92101 19.0907 9.96492 19.2001 9.96492H19.7784C19.8878 9.96492 19.9936 9.92101 20.0721 9.84235L20.4806 9.43255C20.5591 9.35389 20.6029 9.24778 20.6029 9.13801V8.55808C20.6029 8.44832 20.5591 8.34221 20.4806 8.26355L20.0721 7.85375Z" fill="#8E7777"/>
<path d="M46.034 20.3579L37.1855 15.5282C37.1143 15.4898 37.0705 15.4148 37.0705 15.3343V11.7815C37.0705 11.723 37.0943 11.6681 37.1344 11.626L39.5057 9.22034C39.5476 9.17826 39.6042 9.15448 39.6625 9.15448H47.351C47.4094 9.15448 47.4659 9.17826 47.506 9.21851L49.9047 11.6242C49.9466 11.6663 49.9685 11.7212 49.9685 11.7797V13.9458C49.9685 14.0683 49.87 14.1671 49.7478 14.1671H46.3095C46.1872 14.1671 46.0887 14.0683 46.0887 13.9458V12.4292C46.0887 12.3066 45.9902 12.2078 45.868 12.2078H41.3389C41.2167 12.2078 41.1182 12.3066 41.1182 12.4292V13.4024C41.1182 13.4829 41.1619 13.5579 41.2331 13.5963L50.109 18.426C50.1801 18.4645 50.2239 18.5395 50.2239 18.62V22.1709C50.2239 22.2294 50.2002 22.2861 50.1601 22.3264L47.7614 24.7321C47.7195 24.7742 47.6647 24.7961 47.6064 24.7961H39.6024C39.544 24.7961 39.4874 24.7723 39.4473 24.7321L37.0487 22.3264C37.0067 22.2843 36.9848 22.2294 36.9848 22.1709V20.1786C36.9848 20.0561 37.0833 19.9573 37.2055 19.9573H40.6147C40.7369 19.9573 40.8354 20.0561 40.8354 20.1786V21.5233C40.8354 21.6458 40.9339 21.7446 41.0561 21.7446H45.93C46.0523 21.7446 46.1508 21.6458 46.1508 21.5233V20.55C46.1508 20.4695 46.107 20.3945 46.0358 20.3561L46.034 20.3579Z" fill="#8E7777"/>
<path d="M53.675 6.62986V3.61496C53.675 3.49239 53.7735 3.3936 53.8958 3.3936H57.6497C57.7719 3.3936 57.8704 3.49239 57.8704 3.61496V6.62986C57.8704 6.75243 57.7719 6.85122 57.6497 6.85122H53.8958C53.7735 6.85122 53.675 6.75243 53.675 6.62986ZM53.7042 24.5803V9.37767C53.7042 9.2551 53.8027 9.15631 53.9249 9.15631H57.5913C57.7135 9.15631 57.812 9.2551 57.812 9.37767V24.5803C57.812 24.7028 57.7135 24.8016 57.5913 24.8016H53.9249C53.8027 24.8016 53.7042 24.7028 53.7042 24.5803Z" fill="#8E7777"/>
<path d="M65.5972 25.6834V27.0573C65.5972 27.1799 65.6956 27.2787 65.8179 27.2787H70.7775C70.8997 27.2787 70.9982 27.1799 70.9982 27.0573V24.0424C70.9982 23.9198 70.8997 23.821 70.7775 23.821H64.0503C63.992 23.821 63.9354 23.7973 63.8953 23.757L61.5258 21.3806C61.4839 21.3385 61.462 21.2836 61.462 21.2251V11.7834C61.462 11.7248 61.4857 11.6699 61.5258 11.6279L63.8971 9.22217C63.9391 9.18009 63.9956 9.15631 64.054 9.15631H69.5882C69.6466 9.15631 69.7031 9.18009 69.7433 9.22034L71.084 10.565C71.2226 10.704 71.4597 10.6052 71.4597 10.4095V9.37767C71.4597 9.2551 71.5582 9.15631 71.6804 9.15631H74.889C75.0112 9.15631 75.1097 9.2551 75.1097 9.37767V28.1385C75.1097 28.197 75.086 28.2537 75.044 28.2958L72.6454 30.6741C72.6034 30.7143 72.5487 30.7381 72.4903 30.7381H64.2838C64.2255 30.7381 64.1689 30.7143 64.1288 30.6741L61.7593 28.2977C61.7174 28.2556 61.6955 28.2007 61.6955 28.1422V25.6889C61.6955 25.5663 61.794 25.4675 61.9162 25.4675H65.3819C65.5041 25.4675 65.6026 25.5663 65.6026 25.6889L65.5972 25.6834ZM65.7887 20.4787H70.7775C70.8997 20.4787 70.9982 20.3799 70.9982 20.2573V14.0372C70.9982 13.975 70.9709 13.9147 70.9253 13.8726L69.9986 13.0439C69.9585 13.0073 69.9056 12.9871 69.8527 12.9871H65.7905C65.6683 12.9871 65.5698 13.0859 65.5698 13.2085V20.2573C65.5698 20.3799 65.6683 20.4787 65.7905 20.4787H65.7887Z" fill="#8E7777"/>
<path d="M83.0608 20.7293V24.5803C83.0608 24.7028 82.9623 24.8016 82.8401 24.8016H78.8855C78.7633 24.8016 78.6648 24.7028 78.6648 24.5803V20.7293C78.6648 20.6067 78.7633 20.5079 78.8855 20.5079H82.8401C82.9623 20.5079 83.0608 20.6067 83.0608 20.7293Z" fill="#8E7777"/>
<path d="M86.5484 24.5803V9.37767C86.5484 9.2551 86.6469 9.15631 86.7691 9.15631H89.9777C90.0999 9.15631 90.1984 9.2551 90.1984 9.37767V10.404C90.1984 10.6016 90.4373 10.7003 90.576 10.5595L91.8856 9.224C91.9276 9.18192 91.9841 9.15814 92.0425 9.15814H97.5749C97.6333 9.15814 97.6898 9.18192 97.7299 9.22217L100.129 11.6279C100.171 11.6699 100.192 11.7248 100.192 11.7834V24.5803C100.192 24.7028 100.094 24.8016 99.9717 24.8016H96.3035C96.1813 24.8016 96.0828 24.7028 96.0828 24.5803V13.2085C96.0828 13.0859 95.9843 12.9871 95.8621 12.9871H91.7999C91.7452 12.9871 91.6941 13.0073 91.654 13.0439L90.7273 13.8726C90.6799 13.9147 90.6544 13.975 90.6544 14.0372V24.5784C90.6544 24.701 90.5559 24.7998 90.4337 24.7998H86.7655C86.6433 24.7998 86.5448 24.701 86.5448 24.5784L86.5484 24.5803Z" fill="#8E7777"/>
<path d="M112.974 19.3554H116.498C116.62 19.3554 116.718 19.4542 116.718 19.5768V22.1745C116.718 22.2331 116.695 22.288 116.655 22.33L114.283 24.7358C114.241 24.7778 114.185 24.8016 114.126 24.8016H106.152C106.093 24.8016 106.037 24.7778 105.995 24.7358L103.624 22.33C103.583 22.288 103.56 22.2331 103.56 22.1745V11.7815C103.56 11.723 103.583 11.6681 103.624 11.626L105.995 9.22034C106.037 9.17826 106.093 9.15448 106.152 9.15448H114.126C114.185 9.15448 114.241 9.17826 114.283 9.22034L116.655 11.626C116.695 11.6681 116.718 11.723 116.718 11.7815V17.5205C116.718 17.643 116.62 17.7418 116.498 17.7418H107.802C107.68 17.7418 107.582 17.8406 107.582 17.9632V21.2379C107.582 21.3605 107.68 21.4592 107.802 21.4592H112.532C112.654 21.4592 112.753 21.3605 112.753 21.2379V19.5768C112.753 19.4542 112.851 19.3554 112.974 19.3554ZM107.584 12.7182V15.4459C107.584 15.5685 107.682 15.6673 107.804 15.6673H112.534C112.656 15.6673 112.755 15.5685 112.755 15.4459V12.7182C112.755 12.5956 112.656 12.4969 112.534 12.4969H107.804C107.682 12.4969 107.584 12.5956 107.584 12.7182Z" fill="#8E7777"/>
<path d="M124.086 24.7358L121.687 22.33C121.645 22.288 121.623 22.2331 121.623 22.1745V12.6615C121.623 12.5389 121.525 12.4401 121.403 12.4401H119.803C119.681 12.4401 119.582 12.3413 119.582 12.2188V9.37584C119.582 9.25327 119.681 9.15448 119.803 9.15448H121.403C121.525 9.15448 121.623 9.05569 121.623 8.93312V6.03347C121.623 5.9109 121.722 5.81211 121.844 5.81211H125.512C125.635 5.81211 125.733 5.9109 125.733 6.03347V8.93312C125.733 9.05569 125.832 9.15448 125.954 9.15448H129.534C129.657 9.15448 129.755 9.25327 129.755 9.37584V12.2188C129.755 12.3413 129.657 12.4401 129.534 12.4401H125.954C125.832 12.4401 125.733 12.5389 125.733 12.6615V20.7476C125.733 20.8702 125.832 20.969 125.954 20.969H129.764C129.886 20.969 129.985 21.0677 129.985 21.1903V24.5803C129.985 24.7028 129.886 24.8016 129.764 24.8016H124.245C124.186 24.8016 124.13 24.7778 124.09 24.7376L124.086 24.7358Z" fill="#8E7777"/>
<path d="M136.575 24.6479L132.643 12.5023C132.635 12.4804 132.632 12.4566 132.632 12.4347V9.37767C132.632 9.2551 132.73 9.15631 132.852 9.15631H136.521C136.643 9.15631 136.741 9.2551 136.741 9.37767V11.8053C136.741 11.8254 136.745 11.8474 136.75 11.8657L138.985 19.6426C139.045 19.8512 139.339 19.8567 139.406 19.6499L141.931 11.8694C141.938 11.8474 141.942 11.8236 141.942 11.8017V9.37767C141.942 9.2551 142.04 9.15631 142.162 9.15631H145.831C145.953 9.15631 146.051 9.2551 146.051 9.37767V11.8017C146.051 11.8255 146.055 11.8474 146.062 11.8694L148.561 19.6243C148.629 19.831 148.921 19.8274 148.983 19.6188L151.243 11.8675C151.248 11.8474 151.252 11.8273 151.252 11.8053V9.37767C151.252 9.2551 151.35 9.15631 151.472 9.15631H155.139C155.261 9.15631 155.36 9.2551 155.36 9.37767V12.4347C155.36 12.4584 155.356 12.4804 155.349 12.5023L151.416 24.6479C151.387 24.7394 151.301 24.7998 151.206 24.7998H146.958C146.863 24.7998 146.777 24.7376 146.748 24.6461L144.218 16.8253C144.152 16.6222 143.866 16.6222 143.799 16.8253L141.216 24.6479C141.187 24.7376 141.101 24.7998 141.006 24.7998H136.787C136.692 24.7998 136.606 24.7376 136.577 24.6479H136.575Z" fill="#8E7777"/>
<path d="M168.991 9.22034L171.389 11.626C171.431 11.6681 171.453 11.723 171.453 11.7815V22.1727C171.453 22.2313 171.43 22.288 171.389 22.3282L168.991 24.7339C168.949 24.776 168.894 24.798 168.836 24.798H160.545C160.487 24.798 160.43 24.7742 160.389 24.7321L158.017 22.3264C157.977 22.2843 157.953 22.2294 157.953 22.1709V11.7779C157.953 11.7193 157.977 11.6645 158.017 11.6224L160.389 9.21668C160.43 9.1746 160.487 9.15082 160.545 9.15082H168.836C168.894 9.15082 168.951 9.1746 168.991 9.21485V9.22034ZM167.125 12.9012H162.28C162.158 12.9012 162.059 12.9999 162.059 13.1225V20.8336C162.059 20.9561 162.158 21.0549 162.28 21.0549H167.125C167.247 21.0549 167.346 20.9561 167.346 20.8336V13.1225C167.346 12.9999 167.247 12.9012 167.125 12.9012Z" fill="#8E7777"/>
<path d="M175.101 24.5803V9.37767C175.101 9.2551 175.2 9.15631 175.322 9.15631H178.531C178.653 9.15631 178.751 9.2551 178.751 9.37767V10.726C178.751 10.9235 178.989 11.0205 179.127 10.8815L180.783 9.22034C180.825 9.17826 180.88 9.15631 180.938 9.15631H184.132C184.255 9.15631 184.353 9.2551 184.353 9.37767V12.8829C184.353 13.0054 184.255 13.1042 184.132 13.1042H180.504C180.45 13.1042 180.395 13.1262 180.355 13.1628L179.282 14.1616C179.237 14.2037 179.211 14.2623 179.211 14.3245V24.5803C179.211 24.7028 179.113 24.8016 178.99 24.8016H175.324C175.202 24.8016 175.103 24.7028 175.103 24.5803H175.101Z" fill="#8E7777"/>
<path d="M186.872 24.5803V3.61496C186.872 3.49239 186.971 3.3936 187.093 3.3936H190.761C190.883 3.3936 190.982 3.49239 190.982 3.61496V14.8385C190.982 15.027 191.204 15.1294 191.347 15.005L195.588 11.3242C195.637 11.2821 195.664 11.2217 195.664 11.1577V9.37584C195.664 9.25327 195.763 9.15448 195.885 9.15448H199.553C199.675 9.15448 199.774 9.25327 199.774 9.37584V12.3944C199.774 12.4584 199.745 12.5206 199.695 12.5627L196.08 15.6471C195.993 15.7221 195.976 15.8539 196.045 15.9472L199.96 21.2543C199.987 21.2928 200.004 21.3385 200.004 21.3861V24.5784C200.004 24.701 199.905 24.7998 199.783 24.7998H196.117C195.994 24.7998 195.896 24.701 195.896 24.5784V22.363C195.896 22.3172 195.881 22.2733 195.856 22.2367L193.218 18.4571C193.143 18.351 192.996 18.3309 192.897 18.4151L191.064 19.9518C191.015 19.9939 190.985 20.0561 190.985 20.1219V24.5803C190.985 24.7028 190.887 24.8016 190.765 24.8016H187.097C186.974 24.8016 186.876 24.7028 186.876 24.5803H186.872Z" fill="#8E7777"/>
</g>
<defs>
<clipPath id="clip0_347_14228">
<rect width="200" height="34" fill="white"/>
</clipPath>
</defs>
</svg>
